<svg id="Componente_13_1" data-name="Componente 13 – 1" xmlns="http://www.w3.org/2000/svg" width="158.142" height="158.142" viewBox="0 0 158.142 158.142">
  <g id="Caminho_14" data-name="Caminho 14" fill="#700000" stroke-linejoin="round">
    <path d="M 79.07110595703125 155.6422119140625 C 68.73297882080078 155.6422119140625 58.70541000366211 153.6180419921875 49.26695251464844 149.6259155273438 C 44.73032379150391 147.7070770263672 40.35456085205078 145.3319702148438 36.26121520996094 142.5665588378906 C 32.20610427856445 139.8269805908203 28.39278030395508 136.6806640625 24.92714881896973 133.2150573730469 C 21.46154022216797 129.7494354248047 18.31523704528809 125.9361038208008 15.57567119598389 121.8809967041016 C 12.81023597717285 117.7876510620117 10.43512725830078 113.4118881225586 8.516301155090332 108.8752822875977 C 4.524171352386475 99.43682098388672 2.49999737739563 89.40923309326172 2.49999737739563 79.07110595703125 C 2.49999737739563 68.73297882080078 4.524171352386475 58.70541000366211 8.516301155090332 49.26695251464844 C 10.43512725830078 44.73032379150391 12.81023597717285 40.35456085205078 15.57567119598389 36.26121520996094 C 18.31523704528809 32.20610427856445 21.46154022216797 28.39278030395508 24.92714881896973 24.92714881896973 C 28.39278030395508 21.46154022216797 32.20610427856445 18.31523704528809 36.26121520996094 15.57567119598389 C 40.35456085205078 12.81023597717285 44.73032379150391 10.43512725830078 49.26695251464844 8.516301155090332 C 58.70541000366211 4.524171352386475 68.73297882080078 2.49999737739563 79.07110595703125 2.49999737739563 C 89.40923309326172 2.49999737739563 99.43682098388672 4.524171352386475 108.8752822875977 8.516301155090332 C 113.4118881225586 10.43512725830078 117.7876510620117 12.81023597717285 121.8809967041016 15.57567119598389 C 125.9361038208008 18.31523704528809 129.7494354248047 21.46154022216797 133.2150573730469 24.92714881896973 C 136.6806640625 28.39278030395508 139.8269805908203 32.20610427856445 142.5665588378906 36.26121520996094 C 145.3319702148438 40.35456085205078 147.7070770263672 44.73032379150391 149.6259155273438 49.26695251464844 C 153.6180419921875 58.70541000366211 155.6422119140625 68.73297882080078 155.6422119140625 79.07110595703125 C 155.6422119140625 89.40923309326172 153.6180419921875 99.43682098388672 149.6259155273438 108.8752822875977 C 147.7070770263672 113.4118881225586 145.3319702148438 117.7876510620117 142.5665588378906 121.8809967041016 C 139.8269805908203 125.9361038208008 136.6806945800781 129.7494354248047 133.2150573730469 133.2150573730469 C 129.7494354248047 136.6806945800781 125.9361038208008 139.8269805908203 121.8809967041016 142.5665588378906 C 117.7876510620117 145.3319702148438 113.4118881225586 147.7070770263672 108.8752822875977 149.6259155273438 C 99.43682098388672 153.6180419921875 89.40923309326172 155.6422119140625 79.07110595703125 155.6422119140625 Z" stroke="none"/>
    <path d="M 79.07110595703125 5 C 69.06935882568359 5 59.36945343017578 6.957733154296875 50.24082946777344 10.81883239746094 C 45.85288238525391 12.67475891113281 41.62033081054688 14.97218322753906 37.66072845458984 17.64723205566406 C 33.73745727539063 20.2977294921875 30.04803466796875 23.34181213378906 26.69493103027344 26.69493103027344 C 23.34181213378906 30.04803466796875 20.2977294921875 33.73745727539063 17.64723205566406 37.66072845458984 C 14.97218322753906 41.62033081054688 12.67475891113281 45.85288238525391 10.81883239746094 50.24082946777344 C 6.957733154296875 59.36945343017578 5 69.06935882568359 5 79.07110595703125 C 5 89.07285308837891 6.957733154296875 98.77275085449219 10.81883239746094 107.9013824462891 C 12.67475891113281 112.2893295288086 14.97218322753906 116.5218811035156 17.64723205566406 120.4814758300781 C 20.2977294921875 124.4047546386719 23.34181213378906 128.0941772460938 26.69493103027344 131.4472808837891 C 30.04803466796875 134.8003997802734 33.73745727539063 137.844482421875 37.66072845458984 140.4949798583984 C 41.62033081054688 143.1700286865234 45.85288238525391 145.4674530029297 50.24082946777344 147.3233795166016 C 59.36945343017578 151.1844787597656 69.06935882568359 153.1422119140625 79.07110595703125 153.1422119140625 C 89.07285308837891 153.1422119140625 98.77275085449219 151.1844787597656 107.9013824462891 147.3233795166016 C 112.2893295288086 145.4674530029297 116.5218811035156 143.1700286865234 120.4814758300781 140.4949798583984 C 124.4047546386719 137.844482421875 128.0941772460938 134.8003997802734 131.4472808837891 131.4472808837891 C 134.8003997802734 128.0941772460938 137.844482421875 124.4047546386719 140.4949798583984 120.4814758300781 C 143.1700286865234 116.5218811035156 145.4674530029297 112.2893295288086 147.3233795166016 107.9013824462891 C 151.1844787597656 98.77275085449219 153.1422119140625 89.07285308837891 153.1422119140625 79.07110595703125 C 153.1422119140625 69.06935882568359 151.1844787597656 59.36945343017578 147.3233795166016 50.24082946777344 C 145.4674530029297 45.85288238525391 143.1700286865234 41.62033081054688 140.4949798583984 37.66072845458984 C 137.844482421875 33.73745727539063 134.8003997802734 30.04803466796875 131.4472808837891 26.69493103027344 C 128.0941772460938 23.34181213378906 124.4047546386719 20.2977294921875 120.4814758300781 17.64723205566406 C 116.5218811035156 14.97218322753906 112.2893295288086 12.67475891113281 107.9013824462891 10.81883239746094 C 98.77275085449219 6.957733154296875 89.07285308837891 5 79.07110595703125 5 M 79.07110595703125 0 C 122.7408752441406 0 158.1422119140625 35.40132904052734 158.1422119140625 79.07110595703125 C 158.1422119140625 122.7408752441406 122.7408752441406 158.1422119140625 79.07110595703125 158.1422119140625 C 35.40132904052734 158.1422119140625 0 122.7408752441406 0 79.07110595703125 C 0 35.40132904052734 35.40132904052734 0 79.07110595703125 0 Z" stroke="none"/>
  </g>
  <text id="Find-Barber" transform="translate(26.5 97.5)" fill="#010101" font-size="41" font-family="Playbill"><tspan x="0" y="0">Find-Barber</tspan></text>
  <path id="Caminho_11" data-name="Caminho 11" d="M1833.272,459.449l-1.864-.946-2.566-.757-2.512-.406h-.908l-3.038.406-10.539,7.494-4.728,2.834-2.275.219-2.54-.219-1.292-2.13.518-2.129,1.069-.8,1.349-.473h1.409l.7,1.278.47-.514v-1.7l-1.174-.558h-2l-2.349,1.091-1.3.872-1.4,1.869-.362,1.959.362,1.98,1.776,2.624,2.8,2.487,4.228,1.81,3.993.639,5.386.2,5.888-.436,3.305-.921,3.154-1.293,2.245-1.566,2.185-2.16Z" transform="translate(-1753.291 -345.78)"/>
  <path id="Caminho_12" data-name="Caminho 12" d="M1797.947,459.449l1.854-.946,2.553-.757,2.5-.406h.9l3.023.406,10.486,7.494,4.7,2.834,2.263.219,2.528-.219,1.285-2.13-.516-2.13-1.064-.8-1.342-.473h-1.4l-.7,1.278-.467-.514v-1.7l1.168-.558h1.986l2.337,1.091,1.293.872,1.395,1.869.36,1.959-.36,1.98-1.767,2.624-2.79,2.487-4.206,1.81-3.972.639-5.358.2-5.859-.436-3.289-.921-3.137-1.293-2.234-1.566-2.174-2.16Z" transform="translate(-1717.963 -345.78)"/>
  <path id="Caminho_13" data-name="Caminho 13" d="M1835.059,444.876v-19.77l1.528-6.091,2.607-3.633,4.314-2.565,6.382-1.282h10.7l3.865,1.282,3.775,2.565,2.247,3.633,1.259,3.313v22.548h1.078l1.978-.534,2.786-1.71h2.157l.989.748.539,1.5v2.137l-.539,2.244-2.068,1.5-2.606,1.5-7.191,3.1-5.752,1.282-8.539.427-9.438-.427-6.921-1.282-7.37-3.1-4.135-2.992-.9-2.779v-2.137l.9-1.71,1.8-.534Z" transform="translate(-1773.569 -395.253)"/>
</svg>
